<svg width="249" height="81" viewBox="0 0 249 81" fill="none" xmlns="http://www.w3.org/2000/svg">
<g id="path12666" filter="url(#filter0_d_955_1915)">
<path d="M139.389 0.695618C138.625 0.695618 137.632 0.741469 136.41 0.832778C134.79 0.954522 133.812 1.03058 133.476 1.06101C129.259 1.85235 125.531 3.48026 122.291 5.94558C119.786 7.86305 117.677 10.1766 115.966 12.8854C115.904 12.9767 115.644 13.4788 115.186 14.3919C114.85 15.0311 114.667 15.5786 114.636 16.0351C114.606 16.4612 114.468 17.1312 114.224 18.0442C113.979 18.9573 113.857 19.6575 113.857 20.1444C113.857 20.601 113.933 21.0422 114.086 21.4683C114.453 23.6597 114.911 25.1512 115.462 25.9425C115.95 27.6469 117.066 29.2295 118.808 30.6905C119.174 30.9035 119.785 31.3906 120.641 32.1515C121.374 32.7906 122.016 33.2011 122.566 33.3837L124.767 34.4794C125.439 34.9968 126.295 35.5146 127.334 36.032C128.22 36.4581 129.121 36.8686 130.038 37.2643C132.269 38.5122 134.515 39.7603 136.776 41.0082C139.435 42.5605 141.314 44.3259 142.414 46.3043C142.75 47.7348 142.506 48.7995 141.681 49.4996C140.336 50.3822 138.594 50.824 136.455 50.824C134.805 50.824 133.308 50.55 131.963 50.0021C131.505 49.7586 131.276 49.5305 131.276 49.3174C131.276 49.2261 131.306 49.1501 131.367 49.0892C131.948 49.0283 132.651 49.1044 133.476 49.3174C134.485 49.5913 135.172 49.7278 135.539 49.7278C135.844 49.6365 136.088 49.424 136.272 49.0892C136.486 48.7848 136.669 48.48 136.822 48.1757C136.883 47.08 136.623 46.3798 136.043 46.0755C135.034 45.7103 134.01 45.3607 132.971 45.0259C131.749 44.5998 130.695 44.3409 129.809 44.2496C128.8 44.4931 128.128 44.9343 127.792 45.5735C127.486 46.2431 127.165 46.8974 126.829 47.5365C126.493 48.2974 126.34 48.9976 126.371 49.6367C126.432 50.8542 127.059 51.6606 128.25 52.0562C128.862 52.5432 129.686 52.9693 130.725 53.3346C131.581 53.6085 132.452 53.8976 133.338 54.202C133.461 54.2628 133.644 54.2628 133.888 54.202C134.163 54.1715 134.362 54.2174 134.484 54.3391C138.915 54.5522 142.048 53.1675 143.881 50.1848C144.706 49.3022 145.119 48.13 145.119 46.6691C145.119 45.4212 144.844 44.0668 144.294 42.6059C143.102 40.8101 141.33 39.1822 138.977 37.7213C136.899 36.5952 134.82 35.484 132.742 34.3883C132.742 34.3579 132.314 34.1599 131.459 33.7947C130.97 33.5816 130.573 33.3232 130.267 33.0189C127.395 32.0754 125.026 30.7511 123.162 29.0467C121.39 28.0119 119.984 26.7033 118.945 25.1206C117.845 23.4162 117.295 21.6205 117.295 19.7335C117.295 19.2465 117.325 18.7746 117.386 18.318C117.295 15.8831 118.731 13.0982 121.695 9.96329C124.751 7.77189 128.372 6.09813 132.559 4.94156C133.873 4.69807 135.218 4.57617 136.593 4.57617C140.26 4.57617 143.728 5.36747 146.998 6.95014C147.976 7.6806 148.954 8.41096 149.932 9.14142C151.093 10.0545 151.949 10.9526 152.499 11.8353C152.957 12.7788 153.431 13.7222 153.92 14.6657C154.378 15.7918 154.623 16.8572 154.653 17.8615C154.653 18.0137 154.668 18.3179 154.699 18.7745C154.73 19.2006 154.745 19.5356 154.745 19.7791C154.745 20.7834 154.409 21.4377 153.737 21.7421C153.064 22.016 152.835 22.4723 153.049 23.1115C153.263 23.6594 153.798 23.8881 154.653 23.7968C155.753 22.8532 156.38 22.2292 156.532 21.9248C157.144 20.1291 157.45 18.3485 157.45 16.5832C157.45 15.3353 157.297 14.133 156.991 12.9764C156.594 10.6937 155.371 8.54798 153.324 6.53921C151.521 4.77391 149.412 3.37417 146.998 2.33935L143.239 1.19762C142.17 0.862827 140.886 0.695618 139.389 0.695618ZM68.2974 2.17037C68.0143 2.17855 67.7881 2.19907 67.6187 2.23182C58.408 2.82128 52.316 3.23557 48.8351 3.92328C48.527 4.05427 47.9723 4.13578 47.1714 4.16852C46.4013 4.20127 45.8471 4.31604 45.5083 4.51252C45.3543 4.44703 45.2001 4.41431 45.0461 4.41431C44.7996 4.41431 44.461 4.49637 44.0297 4.66011C43.5984 4.7911 43.2592 4.85652 43.0128 4.85652C42.8587 4.85652 42.7051 4.82381 42.5511 4.75831C42.1199 5.11855 41.3646 5.31481 40.2864 5.34756C39.2083 5.3803 38.4536 5.52778 38.0223 5.78977C37.3446 5.75701 36.3899 5.92057 35.1577 6.2808C33.9563 6.60828 33.0165 6.75575 32.3388 6.723L29.8901 7.13723C28.9351 7.39922 28.1186 7.53006 27.4409 7.53006C26.9788 7.79204 26.2086 8.02102 25.1304 8.21751C24.0831 8.38125 23.3284 8.59414 22.8663 8.85613C19.3545 9.54384 16.6131 9.98784 14.3028 10.8065C13.8407 10.9048 12.8545 11.2325 11.345 11.7892C10.1437 12.2476 9.15801 12.4766 8.38789 12.4766C7.86421 12.4766 7.35591 12.3951 6.86304 12.2314C5.26118 12.5916 4.33741 13.2137 4.09097 14.0979C4.06017 14.8183 4.26017 15.5718 4.69144 16.3577C5.12271 17.1437 5.66194 17.5362 6.30884 17.5362C6.55528 17.5362 6.89396 17.4547 7.32523 17.291C7.7565 17.1272 8.08026 17.0291 8.29589 16.9963C8.85038 16.6361 9.68188 16.3245 10.7909 16.0625C12.0847 15.7023 12.9471 15.424 13.3784 15.2275C16.9209 14.0486 18.8928 13.4099 19.2932 13.3116C23.8832 12.0017 27.1793 11.3615 29.5205 10.772C30.8759 10.5427 33.4328 10.1944 37.191 9.27748C40.3639 8.52427 42.9512 8.04915 44.9535 7.85266C46.9251 7.36144 48.419 7.05041 49.4356 6.91942C50.791 6.85392 53.0247 6.81663 56.136 6.35816C58.9084 5.93243 60.8722 5.70346 62.5356 5.67071C62.9053 5.73621 63.3059 5.76892 63.7371 5.76892C64.1376 5.76892 64.7536 5.71958 65.5854 5.62133C66.4479 5.52308 67.0794 5.47429 67.4798 5.47429C68.712 5.47429 69.7137 5.78532 70.4838 6.40753C70.8227 6.53853 71.5619 6.40706 72.7017 6.01416C73.595 5.26095 73.9801 4.6389 73.8569 4.14768C73.6721 3.49271 73.1793 2.91946 72.3783 2.42823C70.5069 2.23174 69.1464 2.14581 68.2974 2.17037ZM81.9786 4.95473C81.3481 4.95473 80.7553 5.09502 80.2004 5.37554C74.5757 9.58335 71.158 16.7493 69.9473 26.8735C69.9725 27.0266 69.9853 27.1921 69.9853 27.3706C69.9853 27.6766 69.9097 28.1233 69.7583 28.7099C69.6322 29.2709 69.5688 29.6789 69.5688 29.9339C69.5688 30.3419 69.67 30.7117 69.8718 31.0432C69.8466 31.2472 69.8338 31.5278 69.8338 31.8848C69.8338 33.4127 70.1602 35.357 70.8017 37.7021C69.4959 38.157 68.6148 38.5007 68.2081 38.7204C68.1585 38.7457 68.109 38.7588 68.0594 38.7588C67.7366 38.4801 67.5257 38.0495 67.4264 37.4667C67.3768 37.0107 67.3268 36.5419 67.2771 36.0606C67.0288 35.4018 66.4577 35.0218 65.5639 34.9205C65.0673 34.8698 64.6576 34.8949 64.3348 34.9962L64.223 34.9962C63.8506 34.9962 63.3415 35.2243 62.6959 35.6804C62.0504 36.1364 61.4793 36.3139 60.9827 36.2125C59.7164 35.1991 58.5248 34.6922 57.4074 34.6922C57.1967 34.6922 56.8373 34.7511 56.6637 34.7938C55.6255 35.0491 54.96 35.3356 53.9848 35.8334C53.3239 36.1707 52.0889 36.5551 51.1626 36.5829C50.2362 36.6107 49.2909 36.3639 49.1216 35.9047C48.9522 35.4456 49.0495 35.0475 49.0742 34.5567C49.0988 34.0401 49.1111 33.6525 49.1111 33.3942C49.1111 33.0842 49.0988 32.8004 49.0742 32.5421L48.4451 31.4185C47.5329 30.9794 46.4979 30.7596 45.3392 30.7596C44.0572 30.7596 42.7626 31.0177 41.456 31.5343C40.0261 32.1025 38.9292 33.0195 38.165 34.2852C37.5733 35.2925 37.2775 36.3516 37.2775 37.4623C37.2775 38.3664 37.4496 38.9219 37.7948 39.1286C38.7316 39.6968 39.8045 39.9812 41.0125 39.9812C42.3684 39.9812 43.9215 39.6323 45.6719 38.9349C47.0771 39.8906 48.6849 39.6932 50.3489 39.1769C52.013 38.6605 55.5392 36.5024 56.4021 36.257C56.5142 36.2251 56.5899 36.202 56.6825 36.1752C57.1868 36.4313 57.5043 36.9235 57.6311 37.6566C57.8297 38.6953 58.0532 39.3416 58.3015 39.5949C58.525 39.6456 58.7485 39.6706 58.972 39.6706C60.2383 39.6706 61.4546 38.8981 62.6216 37.3526C63.0189 37.0993 63.317 36.9724 63.5157 36.9724C63.7143 36.9724 63.8505 37.0737 63.925 37.2764C63.9498 40.114 63.9004 41.6089 63.7762 41.761C58.3634 45.84 54.5645 50.1469 52.3795 54.682C50.1945 59.2171 49.1017 62.9034 49.1017 65.741C49.1017 68.1479 49.7975 70.1879 51.1879 71.86C52.1315 72.4174 53.2731 72.6956 54.6139 72.6956C55.5574 72.6956 56.5387 72.5568 57.5567 72.2781C60.3128 70.6313 62.3611 68.0088 63.7019 64.4111C63.7764 64.1324 64.1113 63.3849 64.7072 62.1688C65.1293 61.2567 65.3281 60.4461 65.3033 59.7367C65.7751 58.5712 66.1227 56.975 66.3461 54.9481C66.6689 52.1359 66.8924 50.4639 67.0166 49.9319C67.1159 49.2478 67.1285 48.0566 67.054 46.3591C67.0043 44.6616 67.0538 43.4204 67.2027 42.6349C67.4759 41.3682 68.0964 40.4181 69.0647 39.7847C69.2385 39.6327 69.4 39.4808 69.549 39.3288C69.9214 39.0755 70.381 38.9486 70.9273 38.9486C71.0093 38.9486 71.0858 38.944 71.1581 38.9366C71.3321 39.5122 71.5171 40.1017 71.7255 40.7213C72.2048 41.7414 72.8732 42.6847 73.7308 43.5517C74.6136 44.3933 75.5339 44.9797 76.4923 45.3112C76.6689 45.4387 76.997 45.528 77.4762 45.579C77.9807 45.63 78.3338 45.7703 78.5356 45.9998C79.2166 46.1528 79.9228 46.2297 80.6543 46.2297C81.638 46.2297 82.773 46.0765 84.0593 45.7704C84.362 45.6939 84.5133 45.4644 84.5133 45.0819C84.5133 44.5974 84.362 44.3808 84.0593 44.4318C83.0252 44.6103 82.1171 44.6995 81.3352 44.6995C80.1245 44.6995 79.1536 44.4952 78.4221 44.0872C75.8494 42.5826 74.3235 40.4788 73.8442 37.7756C77.1737 34.1288 79.948 29.8063 82.1676 24.8079C84.5133 19.5545 85.8251 14.7982 86.1026 10.5394C86.2287 8.42271 85.8756 6.91825 85.0432 6.02568C84.0343 5.31164 83.0128 4.95473 81.9786 4.95473ZM81.5743 6.33182C81.7682 6.31271 82.0542 6.35087 82.4326 6.44649C82.8361 6.75251 83.0886 7.18628 83.1895 7.74732C83.2904 8.30836 83.3782 8.85661 83.4539 9.39215C83.3026 15.8186 81.2095 22.819 77.1738 30.3931C75.4082 32.8923 74.2226 34.422 73.6173 34.983C73.3146 35.034 73.0499 34.7664 72.8229 34.1798C72.7977 27.0393 73.7308 20.9956 75.6225 16.0483C76.9089 11.6875 78.8385 8.46138 81.4112 6.37023C81.4554 6.35111 81.5097 6.3382 81.5743 6.33182ZM200.046 8.89398C198.409 8.81704 196.825 9.40666 195.293 10.6634C194.384 11.4328 193.228 12.7279 191.825 14.5488C189.315 17.8137 187.973 21.7661 187.796 26.4039C186.369 26.289 185.153 26.1193 183.652 25.8833C183.071 25.9851 182.313 25.8073 181.379 25.3489C180.344 24.865 179.611 24.623 179.182 24.623C178.551 24.623 177.97 24.9157 177.44 25.5014C177.288 25.6542 177.212 25.8326 177.212 26.0363C177.212 26.3419 177.465 26.724 177.97 27.1824C181.194 27.8972 183.649 28.2845 187.811 28.3521C187.833 29.0267 187.891 30.4405 188.04 33.7508C188.04 33.8276 187.998 34.8818 187.964 35.7391C187.624 36.005 187.297 36.2676 186.996 36.5379C184.572 37.558 182.363 38.0681 180.368 38.0681C179.181 38.0681 178.07 37.8799 177.034 37.504C175.898 37.2893 174.875 36.645 173.966 35.5712C173.057 34.4973 172.602 33.3563 172.602 32.1482C172.602 31.3965 173.032 30.3094 173.89 28.8865C173.612 28.6717 173.335 28.5645 173.057 28.5645C172.728 28.5645 172.236 28.7928 171.579 29.2492C170.948 29.6787 170.443 29.8801 170.064 29.8532C169.281 31.0345 168.865 31.907 168.814 32.4708C168.713 32.7929 168.663 33.1148 168.663 33.437C168.663 33.4641 168.667 33.4938 168.668 33.5214C167.85 33.4875 166.782 33.434 165.405 33.3563C165.279 33.3563 165.077 33.3299 164.799 33.2762C164.521 33.1957 164.306 33.155 164.155 33.155C163.827 33.155 163.499 33.2628 163.171 33.4776C162.842 33.6655 162.476 34.2019 162.072 35.0878C161.693 35.9737 161.327 36.4975 160.973 36.6586C160.443 36.7391 160.026 36.4838 159.723 35.8932C159.445 35.3026 159.142 34.994 158.814 34.9671C158.486 33.8933 157.451 33.2892 155.708 33.155C155.052 33.3966 154.382 34.0678 153.7 35.1685C153.044 36.2692 152.349 36.9002 151.617 37.0613C151.364 37.1418 151.125 37.182 150.897 37.182C150.19 37.182 149.622 36.793 149.193 36.0145C148.865 35.3165 148.536 34.6183 148.208 33.9203C147.753 33.1955 147.135 32.8731 146.352 32.9536C145.948 33.2489 145.745 33.6516 145.745 34.1617C145.745 34.806 146.061 35.5983 146.692 36.5379C147.172 37.2627 147.652 37.8267 148.132 38.2294C148.612 38.5247 149.092 38.8195 149.571 39.1149C150.152 39.4102 150.733 39.5582 151.314 39.5582C151.895 39.5582 152.551 39.397 153.284 39.0748C153.713 39.048 154.458 38.6722 155.519 37.9473C156.579 37.2225 157.312 36.8599 157.716 36.8599C157.993 36.8599 158.221 36.9672 158.398 37.182C158.827 37.7726 159.244 38.3635 159.648 38.9541C160.203 39.5716 160.834 39.8802 161.542 39.8802C162.047 39.8802 162.615 39.746 163.246 39.4775C163.726 39.1553 164.357 38.4038 165.14 37.2226C165.847 36.095 166.478 35.4101 167.034 35.1685C167.774 35.107 168.406 34.9603 168.934 34.7301C168.969 34.8218 169.001 34.9125 169.041 35.0077C169.294 35.4909 169.547 35.974 169.799 36.4572C172.224 38.417 175.468 39.3969 179.534 39.3969C180.948 39.3969 182.602 39.2764 184.496 39.0348C184.875 39.0348 185.342 38.9005 185.898 38.632C186.352 38.3904 186.82 38.1484 187.299 37.9067C187.539 37.7758 187.69 37.699 187.898 37.588C187.86 38.6673 187.831 39.6278 187.851 39.7085C187.851 40.6831 187.903 41.504 188.007 42.1708C188.137 43.1197 188.228 44.0299 188.28 44.9019L188.241 44.9787C187.124 45.2352 185.995 45.4793 184.852 45.7101C183.605 46.0691 182.605 46.6332 181.852 47.4027C181.67 47.6848 181.579 47.9926 181.579 48.326C181.579 48.1721 181.683 48.7107 181.891 49.9418C184.592 54.2761 187.384 57.8537 190.267 60.6749L191.475 60.6749C191.994 60.521 192.319 60.2259 192.448 59.7899L192.604 58.4819C192.215 53.2243 191.89 49.2878 191.63 46.6719C191.708 46.5436 191.864 46.441 192.098 46.3641C192.176 46.3384 192.384 46.2868 192.721 46.2099C192.981 46.2099 193.566 46.1461 194.475 46.0179C199.15 45.3254 201.359 45.0176 201.723 45.0945C202.294 45.1202 203.077 45.0303 204.635 44.8251L204.674 43.2478C204.285 43.2221 204.012 43.1839 203.856 43.1326C202.999 43.3377 201.838 43.5041 199.189 43.6324C196.28 43.7863 194.722 43.8761 194.514 43.9018C194.228 43.9018 193.773 43.9789 193.15 44.1327C192.526 44.3123 192.085 44.4021 191.825 44.4021C191.592 44.4021 191.41 44.3633 191.28 44.2864C190.989 42.4199 190.631 39.9113 190.773 35.9936C192.877 34.509 194.847 31.6432 196.521 28.2786C198.816 28.2419 200.734 28.2293 202.112 28.2517L202.415 28.5573C202.389 28.9393 202.263 29.8814 202.036 31.3839C201.884 32.5299 201.809 33.4726 201.809 34.2111C201.809 34.6186 201.834 35.0007 201.884 35.3572C202.263 36.1467 202.503 36.7449 202.604 37.1524C203.261 39.2152 205.268 40.6665 208.627 41.5069C209.713 41.3287 210.798 41.1632 211.884 41.0104C213.122 40.7048 214.119 40.1572 214.877 39.3678C215.23 38.9858 215.407 38.4765 215.407 37.8398C215.407 37.4833 215.331 37.3054 215.18 37.3054C215.129 37.3054 215.054 37.3561 214.953 37.458C214.119 38.3238 213.122 38.9862 211.96 39.4446C211.354 39.6993 210.685 39.8264 209.952 39.8264C208.69 39.8264 207.655 39.4697 206.846 38.7566C205.559 37.6361 204.915 35.9044 204.915 33.5615C204.915 32.7211 205.079 31.1549 205.407 28.8629C205.559 28.4045 205.773 28.1625 206.051 28.1371C209.46 27.9079 213.16 27.7936 217.15 27.7936C220.938 27.7936 227.112 27.9461 235.673 28.2517C239.764 28.6083 242.845 28.9392 244.915 29.2448L244.915 28.5957C243.956 27.9336 242.744 27.4879 241.279 27.2587C241.128 27.2332 239.827 27.106 237.377 26.8768C233.16 26.4694 228.034 26.2527 221.998 26.2272C216.821 26.2272 211.644 26.2402 206.467 26.2656L206.278 26.1126C206.227 25.3231 206.392 24.7119 206.77 24.279C207.629 21.8852 208.235 19.593 208.589 17.4029C208.235 16.8681 207.793 16.6008 207.263 16.6008C206.884 16.6008 206.594 16.7792 206.392 17.1357C206.139 18.1544 205.647 19.5551 204.915 21.3377C204.157 23.1968 203.652 24.5975 203.4 25.5398C203.071 26.2274 202.73 26.5712 202.377 26.5712L197.324 26.5712C198.99 22.8488 200.293 18.7272 201.02 15.2412C201.305 13.9332 201.448 12.7662 201.448 11.7403C201.448 9.89377 200.981 8.94529 200.046 8.89398ZM177.495 10.2831C176.395 10.2391 175.396 10.9974 174.496 12.5578C174.218 13.2827 174.08 13.9 174.08 14.41C174.08 15.0006 174.256 15.5107 174.61 15.9402C175.115 16.0744 175.633 16.1416 176.163 16.1416C177.375 16.1416 178.398 15.8461 179.231 15.2555C179.307 14.9333 179.206 14.6115 178.928 14.2893C178.6 13.8329 178.411 13.5375 178.36 13.4033C178.284 13.1617 178.208 12.6384 178.133 11.8331C178.057 11.1351 177.918 10.6245 177.716 10.3024C177.642 10.2923 177.568 10.2861 177.495 10.2831ZM198.363 11.2306C198.602 11.2499 198.76 11.356 198.838 11.5483C198.916 11.933 198.955 12.3174 198.955 12.7021C198.955 13.3946 198.799 14.241 198.487 15.2412C197.942 16.9852 197.657 17.9087 197.631 18.0113C196.647 21.8461 195.858 24.717 195.089 26.5712L192.149 26.5712C191.878 26.5696 191.69 26.5594 191.439 26.5559L191.709 22.9354C192.228 18.7549 193.332 15.626 195.02 13.5487C196.215 12.3689 197.241 11.5996 198.098 11.2405C198.195 11.2277 198.284 11.2242 198.363 11.2306ZM32.1945 15.4695C32.1213 15.4756 32.0462 15.491 31.9691 15.5155C30.5829 16.367 29.8746 18.1356 29.8438 20.8209C29.7822 23.3753 29.7513 24.6854 29.7513 24.7508C29.7821 26.3555 29.7821 29.2861 29.7513 33.5434C29.7513 37.2439 29.7977 40.1751 29.8901 42.3365L29.9826 46.1677C30.0443 47.7068 30.2133 48.9515 30.4906 49.9012C30.891 50.7526 31.538 51.0803 32.4313 50.8838C34.0024 49.6394 34.9731 48.3877 35.3428 46.8485C35.4044 46.652 35.4348 46.4718 35.4348 46.3081C35.4348 45.9806 35.1729 45.6696 34.6492 45.3749C34.1255 45.0801 33.8178 44.7857 33.7254 44.491C33.3557 42.2314 33.217 39.3233 33.3095 36.0485C33.5559 28.5164 33.7404 22.9329 33.8636 19.2979C33.802 19.0359 33.7871 18.4959 33.8179 17.6772C33.8795 16.9895 33.7867 16.531 33.5403 16.3018C33.3246 16.0725 33.0782 15.8596 32.801 15.6631C32.6162 15.5158 32.4139 15.451 32.1945 15.4695ZM194.292 28.3061C193.179 30.5315 192.037 32.0493 190.945 33.1813C190.957 33.0473 190.962 32.9296 190.974 32.7928L191.306 28.3412C192.19 28.3334 193.102 28.3247 194.292 28.3061ZM98.113 29.9372C97.8806 29.9275 97.71 29.9617 97.6007 30.0392C97.3577 30.22 97.0902 30.7105 96.7986 31.5112C96.6771 31.7695 96.4704 32.3382 96.1788 33.2164C96.1059 33.423 96.0698 33.6423 96.0698 33.8748C96.0698 34.1847 96.1668 34.5593 96.3612 34.9984C96.4014 35.0839 96.4192 35.1257 96.4543 35.2014C94.8847 35.7346 93.3703 36.0057 91.9128 36.0057C91.2473 36.0057 90.6077 35.9669 89.9935 35.8894C89.4048 35.8119 88.8673 35.4117 88.381 34.6884C87.9203 33.9393 87.4466 33.5134 86.9603 33.4101C86.2949 33.3068 85.6293 33.2548 84.9639 33.2548C82.942 33.2548 81.2144 33.7846 79.7811 34.8437C78.4759 35.8252 77.8233 36.8843 77.8233 38.0209C77.8233 38.7183 78.1177 39.2864 78.7064 39.7255C79.423 40.2679 80.2933 40.5391 81.317 40.5391C83.1598 40.5391 85.5399 39.6222 88.4576 37.7882C90.0444 37.5558 91.631 37.336 93.2178 37.1293C94.6612 36.9068 95.8899 36.6123 96.9093 36.2471C96.9917 36.2923 97.1357 36.3157 97.3456 36.3157C98.0017 36.3157 98.949 36.1478 100.188 35.812C100.553 35.8637 100.759 36.0578 100.808 36.3936C100.638 37.6335 100.553 38.5241 100.553 39.0666C100.553 40.4098 100.93 41.4174 101.683 42.089C102.752 42.4765 103.663 42.5022 104.416 42.1664C105.097 41.469 105.473 41.0042 105.546 40.7718C105.643 40.5393 105.692 40.3452 105.692 40.1902C105.692 39.9061 105.534 39.7645 105.218 39.7645C105.145 39.7645 105.011 39.777 104.817 39.8029C104.622 39.8287 104.477 39.8418 104.379 39.8418C104.063 39.8418 103.833 39.7642 103.687 39.6092C103.152 39.1701 102.885 38.4729 102.885 37.5172C102.885 37.2589 102.946 36.6258 103.068 35.6184C103.068 35.4634 103.08 35.2179 103.104 34.8821C103.153 34.5205 103.177 34.2493 103.177 34.0684C103.177 33.5002 102.995 33.0999 102.63 32.8675C102.387 32.7125 102.12 32.6348 101.828 32.6348C101.342 32.6348 100.844 32.8027 100.334 33.1385C100.067 33.216 99.8482 33.2548 99.6781 33.2548C99.1921 33.2548 98.9366 32.8026 98.9123 31.8986C98.888 30.8395 98.706 30.1938 98.3659 29.9613C98.2747 29.9484 98.1905 29.9404 98.113 29.9372ZM43.7857 32.3479C45.0923 32.3479 45.8811 32.6967 46.1523 33.3942C46.1523 33.7816 45.9183 34.1436 45.4499 34.4794C44.9815 34.7893 44.7224 35.0862 44.6731 35.3704C44.4759 35.9386 44.2787 36.4942 44.0815 37.0366C43.7856 37.6307 43.379 38.0435 42.8613 38.276C42.7134 38.3018 42.5657 38.3149 42.4178 38.3149C41.6042 38.3149 41.0984 37.9661 40.9012 37.2687C40.8273 37.0104 40.7905 36.7654 40.7905 36.5329C40.7905 36.1455 41.0863 35.2668 41.678 33.8978C42.3683 33.1229 43.0707 32.6062 43.7857 32.3479ZM82.1615 34.9984C82.3919 35.0242 82.6733 35.1921 83.006 35.502C83.3388 35.7862 83.6078 35.954 83.8125 36.0057C84.8875 36.3157 85.5271 36.7033 85.7318 37.1683C85.6039 37.8399 85.1944 38.3434 84.5033 38.6792C83.7867 38.9634 82.9294 38.8989 81.9313 38.4856C81.4706 38.1239 81.1632 37.5296 81.0096 36.703C81.0608 35.9023 81.4449 35.3342 82.1615 34.9984ZM63.7019 43.775C63.8757 43.775 64.0124 43.8512 64.1117 44.0033C64.2359 44.1553 64.2727 44.3328 64.223 44.5354C64.2478 45.0928 64.2605 45.6498 64.2605 46.2072C64.2605 47.93 64.099 49.9569 63.7762 52.2878C63.5279 54.2893 63.2671 56.2781 62.994 58.2543C61.8766 61.9279 61.0326 64.3223 60.4616 65.4371C59.518 68.2747 57.9041 70.2509 55.6198 71.3657C55.1977 71.4417 54.8375 71.4798 54.5395 71.4798C53.6208 71.4798 53.0497 71.1755 52.8263 70.5674C52.1062 68.7433 51.7712 67.0588 51.8209 65.5133C51.8706 63.7145 52.2555 61.7508 52.9756 59.6226C53.1742 59.0145 53.8815 57.1901 55.0981 54.1499C56.4141 52.3764 57.7424 50.5906 59.0832 48.7918C60.6972 46.7143 62.2369 45.0418 63.7019 43.775ZM187.966 47.1887C188.13 47.1904 188.286 47.1972 188.436 47.2101L188.513 47.3258C189.007 52.0962 189.358 55.199 189.566 56.6352C188.033 54.7373 186.903 53.2885 186.176 52.2883L183.916 48.4412C183.812 48.1335 183.903 47.8772 184.189 47.672C184.89 47.5694 185.592 47.4541 186.293 47.3258C186.916 47.2297 187.474 47.1839 187.966 47.1887Z" fill="white"/>
</g>
<defs>
<filter id="filter0_d_955_1915" x="0.0878906" y="0.695618" width="248.828" height="80" filterUnits="userSpaceOnUse" color-interpolation-filters="sRGB">
<feFlood flood-opacity="0" result="BackgroundImageFix"/>
<feColorMatrix in="SourceAlpha" type="matrix" values="0 0 0 0 0 0 0 0 0 0 0 0 0 0 0 0 0 0 127 0" result="hardAlpha"/>
<feOffset dy="4"/>
<feGaussianBlur stdDeviation="2"/>
<feComposite in2="hardAlpha" operator="out"/>
<feColorMatrix type="matrix" values="0 0 0 0 0 0 0 0 0 0 0 0 0 0 0 0 0 0 0.25 0"/>
<feBlend mode="normal" in2="BackgroundImageFix" result="effect1_dropShadow_955_1915"/>
<feBlend mode="normal" in="SourceGraphic" in2="effect1_dropShadow_955_1915" result="shape"/>
</filter>
</defs>
</svg>
