<svg width="25" height="26" viewBox="0 0 25 26" fill="none" xmlns="http://www.w3.org/2000/svg">
<path id="Vector" d="M12.5 0.5C5.5998 0.5 0 6.0998 0 13C0 19.9002 5.5998 25.5 12.5 25.5C19.4002 25.5 25 19.9002 25 13C25 6.0998 19.4002 0.5 12.5 0.5ZM17.5756 18.8921C17.3639 18.8921 17.2329 18.8266 17.0363 18.7107C13.8911 16.8155 10.2319 16.7349 6.61794 17.4758C6.42137 17.5262 6.16431 17.6069 6.01815 17.6069C5.52923 17.6069 5.22177 17.2188 5.22177 16.8105C5.22177 16.2913 5.52923 16.0444 5.90726 15.9637C10.0353 15.0514 14.254 15.1321 17.8528 17.2843C18.1603 17.4808 18.3417 17.6573 18.3417 18.1159C18.3417 18.5746 17.9839 18.8921 17.5756 18.8921ZM18.9315 15.5857C18.6694 15.5857 18.4929 15.4698 18.3115 15.374C15.1613 13.5091 10.4637 12.7581 6.28528 13.8921C6.04335 13.9577 5.9123 14.0232 5.68548 14.0232C5.14617 14.0232 4.70766 13.5847 4.70766 13.0454C4.70766 12.506 4.96976 12.1482 5.48891 12.002C6.89012 11.6089 8.32157 11.3165 10.4183 11.3165C13.6895 11.3165 16.8498 12.128 19.3397 13.6099C19.748 13.8518 19.9093 14.1643 19.9093 14.6028C19.9042 15.1472 19.4808 15.5857 18.9315 15.5857ZM20.494 11.745C20.2319 11.745 20.0706 11.6794 19.8438 11.5484C16.255 9.40625 9.83871 8.89214 5.68548 10.0514C5.50403 10.1018 5.27722 10.1825 5.03528 10.1825C4.36996 10.1825 3.86089 9.66331 3.86089 8.99294C3.86089 8.30746 4.28427 7.91936 4.7379 7.78831C6.5121 7.26915 8.49798 7.02218 10.6603 7.02218C14.3397 7.02218 18.1956 7.78831 21.0131 9.43145C21.4062 9.65827 21.6633 9.97077 21.6633 10.5706C21.6633 11.256 21.1089 11.745 20.494 11.745Z" fill="#F2EFE9"/>
</svg>
