<svg width="26" height="26" viewBox="0 0 26 26" fill="none" xmlns="http://www.w3.org/2000/svg">
<path id="Vector" d="M19.7307 4.825C19.434 4.825 19.144 4.91297 18.8973 5.0778C18.6506 5.24262 18.4584 5.47689 18.3448 5.75097C18.2313 6.02506 18.2016 6.32666 18.2595 6.61764C18.3174 6.90861 18.4602 7.17588 18.67 7.38566C18.8798 7.59544 19.1471 7.7383 19.438 7.79618C19.729 7.85406 20.0306 7.82435 20.3047 7.71082C20.5788 7.59729 20.813 7.40503 20.9779 7.15836C21.1427 6.91168 21.2307 6.62167 21.2307 6.325C21.2307 5.92718 21.0726 5.54564 20.7913 5.26434C20.51 4.98304 20.1285 4.825 19.7307 4.825ZM25.4807 7.85C25.4564 6.81287 25.2621 5.78675 24.9057 4.8125C24.5878 3.97892 24.0931 3.2241 23.4557 2.6C22.8367 1.95928 22.0801 1.46772 21.2432 1.1625C20.2715 0.795201 19.2442 0.596512 18.2057 0.575C16.8807 0.5 16.4557 0.5 13.0557 0.5C9.65566 0.5 9.23066 0.5 7.90566 0.575C6.8671 0.596512 5.83984 0.795201 4.86816 1.1625C4.03276 1.47081 3.27683 1.96195 2.65566 2.6C2.01495 3.21897 1.52338 3.97555 1.21816 4.8125C0.850865 5.78418 0.652177 6.81144 0.630664 7.85C0.555664 9.175 0.555664 9.6 0.555664 13C0.555664 16.4 0.555664 16.825 0.630664 18.15C0.652177 19.1886 0.850865 20.2158 1.21816 21.1875C1.52338 22.0245 2.01495 22.781 2.65566 23.4C3.27683 24.038 4.03276 24.5292 4.86816 24.8375C5.83984 25.2048 6.8671 25.4035 7.90566 25.425C9.23066 25.5 9.65566 25.5 13.0557 25.5C16.4557 25.5 16.8807 25.5 18.2057 25.425C19.2442 25.4035 20.2715 25.2048 21.2432 24.8375C22.0801 24.5323 22.8367 24.0407 23.4557 23.4C24.096 22.7782 24.5911 22.0227 24.9057 21.1875C25.2621 20.2132 25.4564 19.1871 25.4807 18.15C25.4807 16.825 25.5557 16.4 25.5557 13C25.5557 9.6 25.5557 9.175 25.4807 7.85ZM23.2307 18C23.2216 18.7935 23.0779 19.5796 22.8057 20.325C22.6061 20.869 22.2855 21.3605 21.8682 21.7625C21.4627 22.1756 20.9722 22.4955 20.4307 22.7C19.6853 22.9722 18.8991 23.1159 18.1057 23.125C16.8557 23.1875 16.3932 23.2 13.1057 23.2C9.81816 23.2 9.35566 23.2 8.10566 23.125C7.28178 23.1404 6.46141 23.0136 5.68066 22.75C5.16289 22.5351 4.69486 22.216 4.30566 21.8125C3.89077 21.4109 3.57422 20.919 3.38066 20.375C3.07548 19.6189 2.90622 18.8149 2.88066 18C2.88066 16.75 2.80566 16.2875 2.80566 13C2.80566 9.7125 2.80566 9.25 2.88066 8C2.88627 7.18882 3.03435 6.38493 3.31816 5.625C3.53822 5.09739 3.876 4.62707 4.30566 4.25C4.68543 3.82021 5.15477 3.47887 5.68066 3.25C6.4426 2.97505 7.24566 2.83135 8.05566 2.825C9.30566 2.825 9.76816 2.75 13.0557 2.75C16.3432 2.75 16.8057 2.75 18.0557 2.825C18.8491 2.8341 19.6353 2.97781 20.3807 3.25C20.9487 3.46082 21.4585 3.80356 21.8682 4.25C22.2778 4.63397 22.5979 5.10342 22.8057 5.625C23.0835 6.38617 23.2273 7.18972 23.2307 8C23.2932 9.25 23.3057 9.7125 23.3057 13C23.3057 16.2875 23.2932 16.75 23.2307 18ZM13.0557 6.5875C11.7879 6.58997 10.5494 6.96816 9.49648 7.67427C8.4436 8.38039 7.62364 9.38275 7.14021 10.5547C6.65678 11.7266 6.53157 13.0156 6.78041 14.2587C7.02924 15.5017 7.64096 16.6432 8.53826 17.5387C9.43556 18.4343 10.5782 19.0438 11.8217 19.2902C13.0653 19.5366 14.354 19.4089 15.525 18.9232C16.696 18.4375 17.6968 17.6155 18.4008 16.5613C19.1049 15.507 19.4807 14.2677 19.4807 13C19.4823 12.1564 19.3172 11.3208 18.9947 10.5412C18.6723 9.76163 18.1989 9.05351 17.6018 8.45756C17.0046 7.86161 16.2956 7.3896 15.5154 7.06866C14.7352 6.74773 13.8993 6.5842 13.0557 6.5875ZM13.0557 17.1625C12.2324 17.1625 11.4276 16.9184 10.7431 16.461C10.0586 16.0036 9.52507 15.3535 9.21002 14.5929C8.89497 13.8323 8.81253 12.9954 8.97315 12.1879C9.13376 11.3805 9.5302 10.6388 10.1123 10.0567C10.6945 9.47453 11.4362 9.07809 12.2436 8.91748C13.051 8.75687 13.888 8.8393 14.6486 9.15435C15.4092 9.4694 16.0593 10.0029 16.5167 10.6874C16.974 11.372 17.2182 12.1767 17.2182 13C17.2182 13.5466 17.1105 14.0879 16.9013 14.5929C16.6921 15.0979 16.3855 15.5568 15.999 15.9433C15.6125 16.3299 15.1536 16.6365 14.6486 16.8456C14.1436 17.0548 13.6023 17.1625 13.0557 17.1625Z" fill="#F2EFE9"/>
</svg>
