<svg width="36" height="26" viewBox="0 0 36 26" fill="none" xmlns="http://www.w3.org/2000/svg">
<path id="Vector" d="M34.8126 4.41165C34.4037 2.87194 33.1989 1.65931 31.6691 1.24779C28.8964 0.5 17.7778 0.5 17.7778 0.5C17.7778 0.5 6.65931 0.5 3.88646 1.24779C2.35671 1.65937 1.15189 2.87194 0.742969 4.41165C0 7.20247 0 13.0253 0 13.0253C0 13.0253 0 18.848 0.742969 21.6389C1.15189 23.1786 2.35671 24.3407 3.88646 24.7522C6.65931 25.5 17.7778 25.5 17.7778 25.5C17.7778 25.5 28.8963 25.5 31.6691 24.7522C33.1989 24.3407 34.4037 23.1786 34.8126 21.6389C35.5556 18.848 35.5556 13.0253 35.5556 13.0253C35.5556 13.0253 35.5556 7.20247 34.8126 4.41165ZM14.1414 18.3119V7.73861L23.4343 13.0254L14.1414 18.3119Z" fill="#F2EFE9"/>
</svg>
